<svg width="1366" height="558" viewBox="0 0 1366 558" fill="none" xmlns="http://www.w3.org/2000/svg">
<g clip-path="url(#clip0_1115_2)">
<path d="M1650 500.6L1538 467.147C1426 433.334 1202 366.966 978 337.997C754 309.566 530 318.534 306 342.75C82 366.966 -142 404.634 -254 424.097L-366 443.2V271H-254C-142 271 82 271 306 271C530 271 754 271 978 271C1202 271 1426 271 1538 271H1650V500.6Z" fill="#00AFEF"/>
</g>
<g clip-path="url(#clip1_1115_2)">
<path d="M-243.793 109.804L-137.549 136.531C-31.3041 162.858 181.185 216.913 393.674 205.902C606.163 194.891 818.652 120.815 1031.14 99.0928C1243.63 77.771 1456.12 109.804 1562.36 125.82L1668.61 141.836V302H1562.36C1456.12 302 1243.63 302 1031.14 302C818.652 302 606.163 302 393.674 302C181.185 302 -31.3041 302 -137.549 302H-243.793V109.804Z" fill="#00AFEF"/>
</g>
<defs>
<clipPath id="clip0_1115_2">
<rect width="1366" height="287" fill="white" transform="matrix(-1 0 0 -1 1366 558)"/>
</clipPath>
<clipPath id="clip1_1115_2">
<rect width="1366" height="320" fill="white"/>
</clipPath>
</defs>
</svg>
