<svg width="12" height="10" viewBox="0 0 12 10" fill="none" xmlns="http://www.w3.org/2000/svg">
<path d="M0.6 0.799927C0.268125 0.799927 0 1.06805 0 1.39993C0 1.7318 0.268125 1.99993 0.6 1.99993V7.99993C0.268125 7.99993 0 8.26805 0 8.59993C0 8.9318 0.268125 9.19993 0.6 9.19993H11.4C11.7319 9.19993 12 8.9318 12 8.59993C12 8.26805 11.7319 7.99993 11.4 7.99993V1.99993C11.7319 1.99993 12 1.7318 12 1.39993C12 1.06805 11.7319 0.799927 11.4 0.799927H0.6ZM3.3 3.04993V6.94993C3.3 7.1993 3.09938 7.39993 2.85 7.39993C2.60063 7.39993 2.4 7.1993 2.4 6.94993V3.04993C2.4 2.80055 2.60063 2.59993 2.85 2.59993C3.09938 2.59993 3.3 2.80055 3.3 3.04993ZM5.4 3.04993V6.94993C5.4 7.1993 5.19938 7.39993 4.95 7.39993C4.70063 7.39993 4.5 7.1993 4.5 6.94993V3.04993C4.5 2.80055 4.70063 2.59993 4.95 2.59993C5.19938 2.59993 5.4 2.80055 5.4 3.04993ZM7.5 3.04993V6.94993C7.5 7.1993 7.29938 7.39993 7.05 7.39993C6.80063 7.39993 6.6 7.1993 6.6 6.94993V3.04993C6.6 2.80055 6.80063 2.59993 7.05 2.59993C7.29938 2.59993 7.5 2.80055 7.5 3.04993ZM9.6 3.04993V6.94993C9.6 7.1993 9.39937 7.39993 9.15 7.39993C8.90063 7.39993 8.7 7.1993 8.7 6.94993V3.04993C8.7 2.80055 8.90063 2.59993 9.15 2.59993C9.39937 2.59993 9.6 2.80055 9.6 3.04993Z" fill="#ADADAD"/>
</svg>
