<svg width="16" height="15" viewBox="0 0 16 15" fill="none" xmlns="http://www.w3.org/2000/svg">
<g clip-path="url(#clip0_1159_121)">
<path d="M5.24999 1.375C5.24999 0.891016 5.64101 0.5 6.12499 0.5H9.62499C10.109 0.5 10.5 0.891016 10.5 1.375V2.25H11.8125C12.5371 2.25 13.125 2.83789 13.125 3.5625V7.0625L14.3391 7.46719C14.9707 7.67773 15.1457 8.49258 14.6535 8.94102L11.8918 11.473C11.4488 11.7301 10.943 11.8859 10.5 11.8859C9.96405 11.8859 9.38437 11.6754 8.88124 11.3309C8.27694 10.907 7.4703 10.907 6.86601 11.3309C6.39843 11.6535 5.82694 11.8859 5.24726 11.8859C4.80429 11.8859 4.29843 11.7301 3.85546 11.473L1.09374 8.94102C0.601553 8.48984 0.776552 7.67773 1.40819 7.46719L2.62499 7.0625V3.5625C2.62499 2.83789 3.21288 2.25 3.93749 2.25H5.24999V1.375ZM4.37499 6.48008L7.32265 5.49844C7.68085 5.37813 8.06913 5.37813 8.43007 5.49844L11.375 6.48008V4H4.37499V6.48008ZM8.38085 12.0363C8.99608 12.4602 9.74804 12.75 10.5 12.75C11.2355 12.75 12.0148 12.4547 12.6164 12.0363C12.9418 11.8039 13.3848 11.823 13.6883 12.0828C14.082 12.4082 14.5769 12.657 15.0719 12.7719C15.5422 12.8812 15.8348 13.3516 15.7254 13.8219C15.616 14.2922 15.1457 14.5848 14.6754 14.4754C14.0055 14.3195 13.4476 14.0242 13.084 13.7918C12.291 14.2184 11.4023 14.5 10.5 14.5C9.62772 14.5 8.84296 14.2293 8.30155 13.9832C8.14296 13.9094 7.99804 13.8383 7.87499 13.7727C7.75194 13.8383 7.60976 13.9121 7.44843 13.9832C6.90702 14.2293 6.12226 14.5 5.24999 14.5C4.34765 14.5 3.45897 14.2184 2.66601 13.7945C2.2996 14.0242 1.74452 14.3223 1.0746 14.4781C0.604287 14.5875 0.133974 14.2949 0.0245994 13.8246C-0.0847756 13.3543 0.207802 12.884 0.678115 12.7746C1.17304 12.6598 1.66796 12.4109 2.06171 12.0855C2.36522 11.8285 2.80819 11.8094 3.13358 12.0391C3.73788 12.4547 4.51444 12.75 5.24999 12.75C6.00194 12.75 6.7539 12.4602 7.36913 12.0363C7.67265 11.8203 8.07733 11.8203 8.38085 12.0363Z" fill="#ADADAD"/>
</g>
<defs>
<clipPath id="clip0_1159_121">
<rect width="15.75" height="14" fill="white" transform="translate(0 0.5)"/>
</clipPath>
</defs>
</svg>
