<svg width="12" height="12" viewBox="0 0 12 12" fill="none" xmlns="http://www.w3.org/2000/svg">
<path d="M8.06247 0H8.24997H8.81247H8.99997H10.3125C11.2453 0 12 0.754688 12 1.6875C12 1.99922 11.7492 2.25 11.4375 2.25H10.5C9.71716 2.25 9.0281 1.85156 8.62497 1.24453V2.39297C9.37966 2.5875 10.0922 2.97891 10.6828 3.56953C11.5617 4.44609 12 5.59922 12 6.75C12 8.54531 10.6523 12 6.74997 12C3.37497 12 1.02888 10.9852 1.02888 10.9852C0.241378 10.725 -0.185185 9.87656 0.0773154 9.09141C0.173409 8.79844 0.351534 8.55469 0.578878 8.37891C1.38278 7.77656 1.79997 7.02891 2.24763 6.22734C2.73044 5.36484 3.24607 4.43906 4.3195 3.56719C5.19607 2.68828 6.34919 2.25 7.49997 2.25V0.5625C7.49997 0.250781 7.75075 0 8.06247 0ZM10.125 7.125C10.125 6.91875 9.95622 6.75 9.74997 6.75C9.54372 6.75 9.37497 6.91875 9.37497 7.125C9.37497 8.36719 8.36716 9.375 7.12497 9.375C6.91872 9.375 6.74997 9.54375 6.74997 9.75C6.74997 9.95625 6.91872 10.125 7.12497 10.125C8.782 10.125 10.125 8.78203 10.125 7.125Z" fill="#ADADAD"/>
</svg>
