<svg width="12" height="20" viewBox="0 0 12 20" fill="none" xmlns="http://www.w3.org/2000/svg">
<path d="M6.00003 0C6.66378 0 7.20003 0.53625 7.20003 1.2V2.53875C7.26003 2.54625 7.31628 2.55375 7.37628 2.565C7.39128 2.56875 7.40253 2.56875 7.41753 2.5725L9.21753 2.9025C9.87003 3.0225 10.3013 3.64875 10.1813 4.2975C10.0613 4.94625 9.43503 5.38125 8.78628 5.26125L7.00503 4.935C5.83128 4.7625 4.79628 4.87875 4.06878 5.1675C3.34128 5.45625 3.04878 5.85375 2.98128 6.22125C2.90628 6.6225 2.96253 6.8475 3.02628 6.98625C3.09378 7.1325 3.23253 7.2975 3.50628 7.48125C4.11753 7.8825 5.05503 8.145 6.27003 8.4675L6.37878 8.4975C7.45128 8.7825 8.76378 9.1275 9.73878 9.765C10.2713 10.1138 10.7738 10.5863 11.085 11.2463C11.4038 11.9175 11.4713 12.6675 11.325 13.4663C11.0663 14.8913 10.0838 15.8438 8.86503 16.3425C8.35128 16.5525 7.79253 16.6875 7.20003 16.755V18C7.20003 18.6638 6.66378 19.2 6.00003 19.2C5.33628 19.2 4.80003 18.6638 4.80003 18V16.6913C4.78503 16.6875 4.76628 16.6875 4.75128 16.6838H4.74378C3.82878 16.5413 2.32503 16.1475 1.31253 15.6975C0.70878 15.4275 0.43503 14.7188 0.70503 14.115C0.97503 13.5113 1.68378 13.2375 2.28753 13.5075C3.07128 13.8563 4.36128 14.2013 5.10753 14.3175C6.30378 14.4938 7.29003 14.3925 7.95753 14.1188C8.59128 13.86 8.88003 13.485 8.96253 13.035C9.03378 12.6375 8.97753 12.4088 8.91378 12.27C8.84253 12.12 8.70378 11.955 8.42628 11.7712C7.81128 11.37 6.87003 11.1075 5.65128 10.785L5.54628 10.7587C4.47753 10.4738 3.16503 10.125 2.19003 9.4875C1.65753 9.13875 1.15878 8.6625 0.84753 8.0025C0.53253 7.33125 0.46878 6.58125 0.61878 5.7825C0.88878 4.35 1.96128 3.42 3.18003 2.93625C3.67878 2.7375 4.22628 2.6025 4.80003 2.52375V1.2C4.80003 0.53625 5.33628 0 6.00003 0Z" fill="#ADADAD"/>
</svg>
