<svg xmlns="http://www.w3.org/2000/svg" viewBox="0 0 500 500"><g id="freepik--background-simple--inject-2"><g id="freepik--background-simple--inject-2"><path d="M321.9,65.82C293.12,72.75,266.66,88,236.3,94.2c-49.22,10-104.72,7.06-141.23,47.64C67.5,172.49,51.92,217.37,61.23,258.25c24.24,106.36,177,125.34,259.25,80.15,42.67-23.45,73.61-67,95.15-109.57,19.77-39.09,40.78-90.54,11-130.21-14.2-18.93-36.52-31-59.86-34.91C350.77,61,336.05,62.41,321.9,65.82Z" style="fill:#00AFEF"></path><path d="M321.9,65.82C293.12,72.75,266.66,88,236.3,94.2c-49.22,10-104.72,7.06-141.23,47.64C67.5,172.49,51.92,217.37,61.23,258.25c24.24,106.36,177,125.34,259.25,80.15,42.67-23.45,73.61-67,95.15-109.57,19.77-39.09,40.78-90.54,11-130.21-14.2-18.93-36.52-31-59.86-34.91C350.77,61,336.05,62.41,321.9,65.82Z" style="fill:#fff;opacity:0.8"></path></g></g><g id="freepik--Graphics--inject-2"><g id="freepik--graphics--inject-2"><rect x="367.08" y="323.25" width="8.07" height="45.6" style="fill:#00AFEF"></rect><path d="M375.65,369.35h-9.06v-46.6h9.06Zm-8.06-1h7.06v-44.6h-7.06Z" style="fill:#263238"></path><rect x="377.63" y="346.21" width="8.07" height="22.64" style="fill:#00AFEF"></rect><path d="M386.2,369.35h-9.07V345.71h9.07Zm-8.07-1h7.07V346.71h-7.07Z" style="fill:#263238"></path><rect x="387.87" y="331.32" width="8.07" height="37.53" style="fill:#00AFEF"></rect><path d="M396.43,369.35h-9.06V330.82h9.06Zm-8.06-1h7.06V331.82h-7.06Z" style="fill:#263238"></path><path d="M405.15,372.61H366.81a.5.5,0,0,1,0-1h38.34a.5.5,0,0,1,0,1Z" style="fill:#263238"></path><path d="M402.22,375.09a.5.5,0,0,1-.5-.5V336.25a.5.5,0,0,1,1,0v38.34A.5.5,0,0,1,402.22,375.09Z" style="fill:#263238"></path><path d="M108,77.43a2.71,2.71,0,1,1-2.71-2.7A2.71,2.71,0,0,1,108,77.43Z" style="fill:#263238"></path><path d="M137.9,84.26A4.89,4.89,0,1,1,133,79.38,4.89,4.89,0,0,1,137.9,84.26Z" style="fill:#263238"></path><path d="M92.77,99.21A3.74,3.74,0,1,1,89,95.47,3.74,3.74,0,0,1,92.77,99.21Z" style="fill:#263238"></path><polygon points="89.44 99.51 88.64 98.91 105.1 76.87 133.99 83.78 133.76 84.75 105.51 78 89.44 99.51" style="fill:#263238"></polygon><path d="M399,305.54a18.43,18.43,0,0,0,.5,4.25l-4.27,3.31,4.33,7.63,5-2.06a18.16,18.16,0,0,0,7.33,4.3l.72,5.36,8.76,0,.76-5.38a18,18,0,0,0,7.38-4.23l5,2.06,4.4-7.57-4.25-3.31a18.09,18.09,0,0,0,0-8.5l4.27-3.32-4.33-7.63-5,2a18.06,18.06,0,0,0-7.33-4.31l-.71-5.36-8.76,0-.76,5.38a18,18,0,0,0-7.39,4.23l-5-2.06L395.3,298l4.24,3.32A18.56,18.56,0,0,0,399,305.54Zm15.9-9.44a9.74,9.74,0,1,1-7.28,7.24A9.73,9.73,0,0,1,414.91,296.1Z" style="fill:#263238"></path><path d="M364.33,258.7a10.26,10.26,0,0,0,.26,2.4L362.18,263l2.46,4.27,2.83-1.15a10.19,10.19,0,0,0,4.14,2.41l.41,3h4.92l.43-3a10.29,10.29,0,0,0,4.15-2.39l2.82,1.16,2.48-4.26-2.4-1.88a10.34,10.34,0,0,0,0-4.79l2.41-1.86-2.46-4.27-2.82,1.14a10.19,10.19,0,0,0-4.14-2.41l-.4-3H372.1l-.43,3a10.1,10.1,0,0,0-4.15,2.38l-2.82-1.16-2.48,4.26,2.4,1.88A9.67,9.67,0,0,0,364.33,258.7Zm9.16-5.39a5.46,5.46,0,1,1-4.33,4.29A5.48,5.48,0,0,1,373.49,253.31Z" style="fill:#fff"></path><path d="M125,200.08a12.88,12.88,0,0,0,1.45,2.65L124.51,206l4.84,3.82,2.75-2.68A12.57,12.57,0,0,0,138,208l1.9,3.3,5.71-2.3-.92-3.71a12.68,12.68,0,0,0,3.69-4.71l3.81,0,.86-6.1-3.65-1a12.79,12.79,0,0,0-2.24-5.55l1.9-3.29-4.84-3.83-2.74,2.66a12.85,12.85,0,0,0-5.92-.87l-1.88-3.3-5.72,2.3.93,3.71a12.74,12.74,0,0,0-3.7,4.72l-3.8,0-.87,6.1,3.65,1A12.88,12.88,0,0,0,125,200.08Zm7.87-10.36a6.87,6.87,0,1,1-2.83,6.65A6.75,6.75,0,0,1,132.84,189.72Z" style="fill:#00AFEF"></path><path d="M129.08,172.82a5.42,5.42,0,0,0,.58,1.09l-.78,1.34,2,1.55,1.12-1.09a5.27,5.27,0,0,0,2.42.34l.77,1.35,2.33-.94-.38-1.5a5.37,5.37,0,0,0,1.51-1.93h1.55l.35-2.49-1.49-.43a5.32,5.32,0,0,0-.91-2.26l.78-1.34-2-1.55-1.11,1.08a5.14,5.14,0,0,0-2.42-.34l-.77-1.35-2.33.94.37,1.5a5.34,5.34,0,0,0-1.5,1.93h-1.56l-.35,2.49,1.49.42A4.89,4.89,0,0,0,129.08,172.82Zm3.29-4.3a2.8,2.8,0,1,1-.81,3.87,2.87,2.87,0,0,1-.41-1A2.83,2.83,0,0,1,132.37,168.52Z" style="fill:#00AFEF"></path></g></g><g id="freepik--Window--inject-2"><g id="freepik--Screen--inject-2"><path d="M116.34,141.69H383.61a3,3,0,0,1,3,3V277.14a3,3,0,0,1-3,3H113.34a0,0,0,0,1,0,0V144.69A3,3,0,0,1,116.34,141.69Z" style="fill:#00AFEF"></path><path d="M116.34,141.69H383.61a3,3,0,0,1,3,3V277.14a3,3,0,0,1-3,3H113.34a0,0,0,0,1,0,0V144.69A3,3,0,0,1,116.34,141.69Z" style="opacity:0.2"></path><path d="M388.71,287.5H111.29a5.51,5.51,0,0,1-5.5-5.5V105.1a5.51,5.51,0,0,1,5.5-5.5H389.71a4.51,4.51,0,0,1,4.5,4.5V282A5.51,5.51,0,0,1,388.71,287.5ZM111.29,100.6a4.51,4.51,0,0,0-4.5,4.5V282a4.51,4.51,0,0,0,4.5,4.5H388.71a4.51,4.51,0,0,0,4.5-4.5V104.1a3.5,3.5,0,0,0-3.5-3.5Z" style="fill:#263238"></path><path d="M116.82,107.7H265.57a4,4,0,0,1,4,4v1.43a3,3,0,0,1-3,3H116.82a4,4,0,0,1-4-4v-.43a4,4,0,0,1,4-4Z" style="fill:#00AFEF"></path><path d="M266.57,116.62H116.82a4.5,4.5,0,0,1-4.5-4.5v-.42a4.51,4.51,0,0,1,4.5-4.5H265.57a4.5,4.5,0,0,1,4.5,4.5v1.42A3.5,3.5,0,0,1,266.57,116.62ZM116.82,108.2a3.5,3.5,0,0,0-3.5,3.5v.42a3.5,3.5,0,0,0,3.5,3.5H266.57a2.5,2.5,0,0,0,2.5-2.5V111.7a3.5,3.5,0,0,0-3.5-3.5Z" style="fill:#263238"></path><path d="M121,127.84a3.14,3.14,0,1,1-3.13-3.13A3.14,3.14,0,0,1,121,127.84Z" style="fill:#fff"></path><path d="M117.84,131.48a3.64,3.64,0,1,1,3.63-3.64A3.64,3.64,0,0,1,117.84,131.48Zm0-6.27a2.64,2.64,0,1,0,2.63,2.63A2.64,2.64,0,0,0,117.84,125.21Z" style="fill:#263238"></path><circle cx="128.5" cy="127.84" r="3.13" style="fill:#fff"></circle><path d="M128.5,131.48a3.64,3.64,0,1,1,3.63-3.64A3.64,3.64,0,0,1,128.5,131.48Zm0-6.27a2.64,2.64,0,1,0,2.63,2.63A2.64,2.64,0,0,0,128.5,125.21Z" style="fill:#263238"></path><path d="M142.29,127.84a3.14,3.14,0,1,1-3.14-3.13A3.15,3.15,0,0,1,142.29,127.84Z" style="fill:#fff"></path><path d="M139.15,131.48a3.64,3.64,0,1,1,3.64-3.64A3.64,3.64,0,0,1,139.15,131.48Zm0-6.27a2.64,2.64,0,1,0,2.64,2.63A2.63,2.63,0,0,0,139.15,125.21Z" style="fill:#263238"></path></g></g><g id="freepik--Floor--inject-2"><ellipse cx="250" cy="427.27" rx="154.4" ry="14.93" style="fill:#00AFEF"></ellipse><ellipse cx="250" cy="427.27" rx="154.4" ry="14.93" style="fill:#fff;opacity:0.7000000000000001"></ellipse></g><g id="freepik--character-2--inject-2"><g id="freepik--character-2--inject-2"><path d="M255.17,414.61s-6.68,8.08-7.87,14.45.86,6,2.48,6.14,6-5.17,7.12-7.22,3.56-14.13,3.56-14.13Z" style="fill:#fff"></path><path d="M317.2,413.38l3.6-2.35s5.76,5,10.43,6.41,13.93-.91,15.61,4.73c0,0-8.45,2.94-13.45,2.56s-16.81-.19-16.81-.19Z" style="fill:#fff"></path><path d="M282.38,238.08s-7,53.33-9.09,68.17S263,360.18,261.48,369s-7.28,46.66-7.28,46.66l6.06,2.73,44.24-133s6.36,49.08,6.06,63.93S316.32,415,316.32,415l6.05-2.71s7.58-39.71,6.37-54.26,3.33-61.5,1.82-78.47-3.64-42.42-3.64-42.42S310.56,247.17,282.38,238.08Z" style="fill:#263238"></path><path d="M249.29,435.63l-.48,0a2.56,2.56,0,0,1-2.4-2.08c-1.31-5.09,6.18-18.06,9.54-20.36a.5.5,0,0,1,.69.12.51.51,0,0,1-.13.69c-3,2.09-10.32,14.76-9.14,19.31a1.6,1.6,0,0,0,1.54,1.34l.38,0c7,0,10.27-18.09,10.31-18.27a.48.48,0,0,1,.57-.4.49.49,0,0,1,.4.57C260.43,417.33,257.08,435.63,249.29,435.63Z" style="fill:#263238"></path><path d="M305,283.45a.51.51,0,0,1-.31-.11.49.49,0,0,1-.07-.69L319,264.9a.49.49,0,0,1,.69-.07.48.48,0,0,1,.07.69l-14.44,17.75A.48.48,0,0,1,305,283.45Z" style="fill:#fff"></path><path d="M306.48,285.6a.51.51,0,0,1-.43-.25.49.49,0,0,1,.18-.67,38.81,38.81,0,0,0,6.19-4.52.49.49,0,0,1,.7,0,.5.5,0,0,1,0,.7,40.15,40.15,0,0,1-6.35,4.63A.47.47,0,0,1,306.48,285.6Z" style="fill:#fff"></path><path d="M333.39,425.23c-2.21,0-4.94-.13-7.58-.25-3.72-.18-8.34-.4-8.95,0a.52.52,0,0,1-.51,0,.5.5,0,0,1-.26-.44l.26-15.39a.45.45,0,0,1,.5-.49.51.51,0,0,1,.49.5l-.25,14.74c1.31-.22,4-.12,8.77.1,2.63.12,5.35.25,7.53.25,5,0,11.22-1.87,12.87-2.4a4.85,4.85,0,0,0-3.54-2.94,16.6,16.6,0,0,0-4.08-.3H337a23.25,23.25,0,0,1-16.48-7.66.49.49,0,0,1,0-.7.5.5,0,0,1,.7,0,22.18,22.18,0,0,0,15.77,7.33h1.56A17.15,17.15,0,0,1,343,418c1.94.48,4,1.95,4.37,4.15a.51.51,0,0,1-.33.54C346.69,422.74,339.3,425.23,333.39,425.23Z" style="fill:#263238"></path><path d="M282.5,253.65a2.81,2.81,0,0,1-1.22-.27.49.49,0,1,1,.41-.89,2.81,2.81,0,0,0,3.19-1.11,9.09,9.09,0,0,0,1.36-3.81l1.25-6.25a.5.5,0,0,1,.58-.39.49.49,0,0,1,.38.58l-1.24,6.25a10,10,0,0,1-1.55,4.22A4.16,4.16,0,0,1,282.5,253.65Z" style="fill:#fff"></path><path d="M331.51,423.21a37.6,37.6,0,0,1-5-.33l-1.41-.21c-2.94-.43-6-.89-8.44.48l-.48-.86c2.75-1.53,6-1.06,9.06-.59l1.41.2a36.57,36.57,0,0,0,18.56-2.36l.37.92A37.5,37.5,0,0,1,331.51,423.21Z" style="fill:#263238"></path><path d="M250.7,435.21a5.4,5.4,0,0,1-2.63-2.68,8.17,8.17,0,0,1-.23-3,23.51,23.51,0,0,1,6.41-14.48l.71.69a22.51,22.51,0,0,0-6.14,13.86,7.73,7.73,0,0,0,.19,2.64,4.65,4.65,0,0,0,2.11,2.07Z" style="fill:#263238"></path><polygon points="358.04 182.3 389.29 131.54 355.08 118.06 326.87 159.94 358.04 182.3" style="fill:#fff"></polygon><path d="M380.23,164.44s2.68-3.43,2.75-6.86-2.18-3.85-1.59-5.85.1-3.15-2-5.26-6.83-3.36-7.14-2.24,4.24,2.94,3.8,4.87c0,0-8.1.31-8.48,2.37l-.12,1.43s-1.63.75-1.25,1.63,8.67.75,8.67.75-1.37,5.42.44,7Z" style="fill:#fff"></path><path d="M364.54,136c8.58,11.31.77,25.55-10.8,32.91s-22.8,4.08-28.61-5S324,141.32,335.56,134,358,127.34,364.54,136Z" style="fill:#fff"></path><path d="M373.85,161.44,359.43,194.5l-26.26-22.77S323.6,167,322.38,159l-18.64-2.6s-2.23,8.85-6.06,10.77l-4.18-7.31-.63,9s-9.62-3.9-12.33-6.19c0,0-21.49,9.72-25,20.33s8,36.19,8,36.19,4.35,11.13,8,11.83,11-6.1,11-6.1l-2,12.76s28.12,11.15,46.71-1.15L327,195.08s23.71,12,30.84,14.58,9.74,1.56,9.74,1.56,12.18-32,14.27-46.79Zm-95,49.52-3.63-13.65,6.18,11.59Z" style="fill:#00AFEF"></path><path d="M329.53,167.93s14.53,6,28.42-8.84S363,135,363,135s12.33,8.49,1.75,23.49-22.26,15.15-28.89,14S329.53,167.93,329.53,167.93Z" style="fill:#00AFEF"></path><path d="M290.13,218.33c-.24,0,0,.36.24.36,3.67.06,7.34-.05,11-.35l-10,3.9a2.3,2.3,0,0,0-.87.51,2.24,2.24,0,0,0-.39.86c-1.5,5.27-4.59,15.95-4.45,16l-5.13-1.89,2-12.76Z" style="opacity:0.2"></path><path d="M274.49,194.9l1.86-16.29s6,4.57,4.2,10.23,4.56,17.35,4.56,17.35l-3.72,2.71L274,193.59Z" style="opacity:0.2"></path><path d="M327.16,183.87s1.51,7.66,2.09,8.24-.58-6.38.46-6.73,3.83,9.05,3.83,9.05,10.67,6.26,14.27,5.68,9.27-7,9.27-7l2.19,2s-2.19,5.93-4.85,7.09c0,0,4.52,6,14.72,4.87,0,0-.72,5.47-4.75,4.64-9.5-2-37.36-16.63-37.36-16.63Z" style="opacity:0.2"></path><path d="M261.84,173.34c-4.53,16.83-2.78,22.68,2.63,36.89,0,0,7.43-3.5,13.47-.29l.57,1.58-9.83,6.09s1,7.85,7.64,11.27c0,0-2.65,2.56-4.74,2.18s-10.35-18.28-12.16-21.9S249,187.43,261.84,173.34Z" style="opacity:0.2"></path><path d="M326.78,166.25a15.93,15.93,0,0,1-4.31-14.33C324.16,143,333,134.36,340,131.43s19-4.16,23,3.54c0,0-8.32-6.31-23,1.7S324.62,159.94,326.78,166.25Z" style="fill:#00AFEF"></path><path d="M359.37,195.54a.53.53,0,0,1-.33-.13l-31.16-28a.49.49,0,1,1,.66-.73l31.16,28a.49.49,0,0,1,0,.69A.5.5,0,0,1,359.37,195.54Z" style="fill:#263238"></path><path d="M365.42,212.34c-8,0-35-14.85-38.3-16.68a.49.49,0,0,1,.48-.86c13.94,7.73,35.81,18.47,38.91,16.34,3.5-2.39,11.74-33.54,14.76-45.89l-7.16-3.16-16,37.66a.5.5,0,1,1-.91-.39l16.23-38.11a.53.53,0,0,1,.28-.27.5.5,0,0,1,.38,0l8,3.53a.49.49,0,0,1,.28.57c-.44,1.78-10.69,43.74-15.26,46.87A2.94,2.94,0,0,1,365.42,212.34Z" style="fill:#263238"></path><path d="M307.14,243.7c-13.46,0-26.56-5.44-26.76-5.52a.5.5,0,0,1-.3-.53l2-12.77a.49.49,0,0,1,.56-.41.49.49,0,0,1,.41.56l-1.91,12.38c3.47,1.38,31.41,11.86,45.66-1.06l-.16-53.62a.49.49,0,0,1,.49-.5h0a.51.51,0,0,1,.5.49l.16,53.85a.5.5,0,0,1-.16.36C322.08,242,314.56,243.7,307.14,243.7Z" style="fill:#263238"></path><path d="M321.72,158.51h-.06l-18.38-2.19a.49.49,0,1,1,.12-1l18.38,2.19a.49.49,0,0,1,.43.55A.5.5,0,0,1,321.72,158.51Z" style="fill:#263238"></path><path d="M272.17,231.84c-2.05,0-3.74-3-4.75-4.72l-.38-.65a107.16,107.16,0,0,1-6-12c-4.44-9.95-8.21-20.5-5.81-30.19,2.44-9.84,9.92-13.93,17.84-18.25,2.18-1.19,4.44-2.42,6.59-3.78a.49.49,0,0,1,.53.83c-2.18,1.38-4.45,2.62-6.65,3.82-7.72,4.21-15,8.19-17.35,17.61s1.39,19.77,5.75,29.56A108.65,108.65,0,0,0,267.88,226c.12.19.25.41.39.67.85,1.48,2.42,4.23,3.9,4.23h0c4.25-.1,28.16-21.71,37.42-30.41l-4.28-6.56-34,22.81a.49.49,0,0,1-.68-.13.51.51,0,0,1,.13-.69l34.4-23.08a.49.49,0,0,1,.37-.08.49.49,0,0,1,.32.21l.08.12,4.7,7.21a.5.5,0,0,1-.07.63c-1.34,1.26-32.83,30.83-38.38,31Z" style="fill:#263238"></path><path d="M304.05,128.89a.5.5,0,0,1-.3-.11.48.48,0,0,1-.09-.69c.85-1.1,2.88-4.31,2-5.86a1.51,1.51,0,0,0-1-.89,1.57,1.57,0,0,0-1.14.4.49.49,0,1,1-.67-.72,2.59,2.59,0,0,1,2-.66,2.46,2.46,0,0,1,1.71,1.39c1.33,2.39-1.74,6.49-2.1,6.95A.51.51,0,0,1,304.05,128.89Z" style="fill:#263238"></path><path d="M337,169.91c-5.14,0-9.44-1.83-12.19-5.24-3-3.7-3.79-8.79-2.25-14.34a31.84,31.84,0,0,1,26.94-21.81c5.75-.34,10.56,1.5,13.56,5.2s3.79,8.79,2.25,14.34a31.84,31.84,0,0,1-26.95,21.81C337.9,169.9,337.45,169.91,337,169.91Zm13.86-40.44c-.43,0-.86,0-1.3,0a30.85,30.85,0,0,0-26.05,21.09c-1.46,5.23-.72,10,2.07,13.45s7.31,5.16,12.72,4.83a30.86,30.86,0,0,0,26.06-21.08c1.45-5.24.72-10-2.07-13.46C359.73,131.18,355.7,129.47,350.86,129.47Z" style="fill:#263238"></path><path d="M340.21,173.44c-5,0-9.39-1.72-12.22-5.22-3-3.7-3.79-8.79-2.25-14.34A30,30,0,0,1,336,139c10.55-8.54,24.12-9.31,30.26-1.72,3,3.69,3.79,8.79,2.25,14.34a30,30,0,0,1-10.24,14.89C352.57,171.09,346,173.44,340.21,173.44ZM354,133c-5.57,0-11.91,2.28-17.42,6.73a29,29,0,0,0-9.91,14.39c-1.45,5.23-.72,10,2.07,13.46,5.79,7.16,18.74,6.32,28.86-1.87a29,29,0,0,0,9.92-14.39c1.45-5.23.72-10-2.07-13.45C362.83,134.62,358.7,133,354,133Z" style="fill:#263238"></path><path d="M332.52,171.5l-10.31,11.68,0,0-13.34,15.12-2.41-5.6-1.07.55s-.4.15-.39.1a4.75,4.75,0,0,0,.66-2.39c.67-.19.05-.89,0-1.13v-1.26l7.75-7.18.44-.46,13.77-13.92h.17a4.24,4.24,0,0,1,.73.15,5,5,0,0,1,1.64.85,7.25,7.25,0,0,1,2.26,3.11C332.43,171.27,332.47,171.39,332.52,171.5Z" style="fill:#263238"></path><path d="M337.68,159.45a3.89,3.89,0,0,1-1.69-.37,4.57,4.57,0,0,1-2.5-3.69,9.51,9.51,0,0,1,.35-3.35c.39-1.62.88-3.53,1.53-5.44a1.92,1.92,0,0,1,3.63,1.25c-.6,1.75-1.06,3.56-1.43,5.09a6.31,6.31,0,0,0-.27,2,1,1,0,0,0,.3.66c.06,0,.47.13,1.88-.84,6.57-4.55,13-9.46,19.14-14.59a1.92,1.92,0,0,1,2.46,3c-6.22,5.2-12.75,10.18-19.42,14.79A7.29,7.29,0,0,1,337.68,159.45Z" style="fill:#00AFEF"></path><path d="M337.68,160a4.46,4.46,0,0,1-1.9-.42,5.09,5.09,0,0,1-2.78-4.08,10,10,0,0,1,.35-3.51c.4-1.65.89-3.58,1.55-5.5a2.39,2.39,0,0,1,1.23-1.38,2.36,2.36,0,0,1,1.84-.12,2.44,2.44,0,0,1,1.39,1.23,2.4,2.4,0,0,1,.11,1.84c-.6,1.73-1.05,3.52-1.42,5.05a6,6,0,0,0-.26,1.82,1,1,0,0,0,0,.22,5.57,5.57,0,0,0,1.36-.75c6.56-4.54,13-9.44,19.1-14.56a2.41,2.41,0,0,1,3.95,2.07,2.36,2.36,0,0,1-.85,1.63c-6.23,5.22-12.78,10.21-19.46,14.83A7.81,7.81,0,0,1,337.68,160Zm-.5-14.15a1.51,1.51,0,0,0-.62.14,1.42,1.42,0,0,0-.72.82c-.65,1.88-1.13,3.79-1.52,5.4a8.87,8.87,0,0,0-.34,3.17,4.09,4.09,0,0,0,2.22,3.31,3.55,3.55,0,0,0,1.48.32,7,7,0,0,0,3.7-1.45c6.65-4.6,13.18-9.57,19.39-14.77a1.42,1.42,0,0,0,.5-1,1.36,1.36,0,0,0-.33-1,1.43,1.43,0,0,0-1-.51,1.46,1.46,0,0,0-1,.33c-6.14,5.14-12.59,10-19.18,14.61-1.16.8-1.93,1.09-2.37.88a1.32,1.32,0,0,1-.58-1,6.62,6.62,0,0,1,.28-2.17c.37-1.55.84-3.37,1.45-5.14a1.43,1.43,0,0,0-.89-1.81A1.26,1.26,0,0,0,337.18,145.8Z" style="fill:#263238"></path><path d="M348.38,176a.47.47,0,0,1-.28-.09l-4-2.81a.51.51,0,0,1-.12-.69.49.49,0,0,1,.69-.12l4,2.81a.5.5,0,0,1,.11.69A.49.49,0,0,1,348.38,176Z" style="fill:#263238"></path><path d="M358,182.79a.47.47,0,0,1-.28-.09l-5.37-3.79a.5.5,0,0,1-.11-.69.48.48,0,0,1,.68-.12l4.94,3.49,16.05-26a.49.49,0,1,1,.84.52l-16.33,26.43a.5.5,0,0,1-.32.22Z" style="fill:#263238"></path><path d="M380.63,146.09a.48.48,0,0,1-.26-.07.5.5,0,0,1-.16-.68l8.35-13.56-33.3-13.11-7.35,10.49a.49.49,0,0,1-.69.12.49.49,0,0,1-.12-.68l7.57-10.82a.5.5,0,0,1,.59-.18l34.21,13.48a.49.49,0,0,1,.28.3.48.48,0,0,1-.05.42l-8.65,14.06A.48.48,0,0,1,380.63,146.09Z" style="fill:#263238"></path><path d="M278.61,211.45a.52.52,0,0,1-.43-.24c-.81-1.36-6.58-24.8-7.24-27.46a.5.5,0,0,1,.37-.6.48.48,0,0,1,.59.36c2.56,10.4,6.57,26.23,7.13,27.19a.5.5,0,0,1-.17.68A.59.59,0,0,1,278.61,211.45Z" style="fill:#263238"></path><path d="M281.33,208.83a.47.47,0,0,1-.43-.26l-7-13.21a.49.49,0,1,1,.87-.47l7,13.21a.5.5,0,0,1-.21.67A.46.46,0,0,1,281.33,208.83Z" style="fill:#263238"></path><path d="M267,212.25a.5.5,0,0,1-.06-1c2.8-.34,5.61-.79,8.36-1.34a.49.49,0,1,1,.19,1c-2.77.56-5.61,1-8.43,1.36Z" style="fill:#263238"></path><path d="M274.61,196.88a.53.53,0,0,1-.24-.06.59.59,0,0,1-.3-.52.64.64,0,0,1,.16-.38L275.59,183a.49.49,0,0,1,1,.11l-1.37,13,0,.13a.49.49,0,0,1-.16.48A.58.58,0,0,1,274.61,196.88Zm-.39-.87Z" style="fill:#263238"></path><path d="M323.1,182.24c0,1.69-1.75,5.18-1.75,5.18a4.32,4.32,0,0,1-.06.44,10.81,10.81,0,0,1-.4,1.82,8.51,8.51,0,0,1-2.56,4.1l-.88.69a.26.26,0,0,1-.1.07c-2.07,1.59-5.21,3.78-7.1,5.1l-1-1.58s-2.71-3.89-3.38-5.22a6.45,6.45,0,0,0,.47-.69,6.46,6.46,0,0,0-.28-2.38c-.07-.29-.13-.55-.17-.79a1.25,1.25,0,0,1,.07-.95,3.27,3.27,0,0,1,.43-.48h0c1.54-1.65,6.42-6.27,6.42-6.27a12.31,12.31,0,0,1,1.52-.83,2.57,2.57,0,0,1,1.2-.31.39.39,0,0,1,.41.33,1.44,1.44,0,0,1,0,.46,28,28,0,0,1-1.95,4.89c0,.23.21.2.25-.19a48.29,48.29,0,0,1,4.43-2.66l.1-.05c1.93-1,3.78-1.73,4.21-1.34a.16.16,0,0,1,.06.08,1.69,1.69,0,0,1,.08.24C323.09,182,323.1,182.11,323.1,182.24Z" style="fill:#fff"></path><path d="M310.32,200.29a.49.49,0,0,1-.4-.21.5.5,0,0,1,.12-.69c2-1.39,5.15-3.64,7-5l.12-.09c2.6-1.88,2.92-2.92,3.22-4.47l.05-.26c.07-.32.13-.67.22-1,0-.18.09-.38.15-.58a20.37,20.37,0,0,1,.87-2.22,7.74,7.74,0,0,0,1-3.25.47.47,0,0,0,0-.16.35.35,0,0,1,0-.13s0,0,0,0-.88-.09-3.6,1.44a.78.78,0,0,1-.18.08c-2.35,1.36-4.94,3.18-5,3.2a.49.49,0,0,1-.7-.67c.14-.21.27-.43.38-.62,1.61-2.64,1.92-3.84,1.9-4.39,0-.31-.11-.36-.15-.38a1,1,0,0,0-.5-.09l-.3,0c-.92.14-2.65,2-4.18,3.59-.92,1-1.87,2-2.74,2.74a2.9,2.9,0,0,0-.73.92l0,.06a2.7,2.7,0,0,0-.29,1.05,5,5,0,0,0,0,.84c0,.3.09.59.14.86a5.32,5.32,0,0,1,.14,1.65,3.83,3.83,0,0,1-.37.92l-.05.09a.49.49,0,0,1-.9-.4l.05-.11c.09-.18.26-.55.3-.67a5.14,5.14,0,0,0-.14-1.3c-.06-.29-.11-.6-.15-.92a5.14,5.14,0,0,1,0-1,3.7,3.7,0,0,1,.42-1.5l0,0a3.91,3.91,0,0,1,.94-1.17c.83-.73,1.77-1.72,2.68-2.68,1.87-2,3.48-3.69,4.74-3.89l.37,0a1.84,1.84,0,0,1,1.07.21,1.32,1.32,0,0,1,.65,1.2,8.17,8.17,0,0,1-1.31,3.68c.95-.63,2.14-1.39,3.31-2.05l.1-.05c3.55-2,4.44-1.74,4.84-1.22a.76.76,0,0,1,.14.23,1.32,1.32,0,0,1,.09.28,2.13,2.13,0,0,1,.07.37,8.4,8.4,0,0,1-1,3.74c-.3.71-.62,1.44-.83,2.12-.05.18-.1.35-.13.51-.08.35-.15.68-.21,1l-.05.26c-.34,1.74-.77,3-3.54,5a2.26,2.26,0,0,1-.26.17c-1.76,1.29-4.95,3.55-6.92,4.94A.52.52,0,0,1,310.32,200.29Zm12.17-18.2h0Z" style="fill:#263238"></path><path d="M351.78,200.38a.48.48,0,0,1-.41-.23.49.49,0,0,1,.15-.68,29.84,29.84,0,0,0,4.72-3.72.5.5,0,1,1,.69.71,30.67,30.67,0,0,1-4.88,3.84A.53.53,0,0,1,351.78,200.38Z" style="fill:#263238"></path><path d="M374.64,162.25a.48.48,0,0,1-.48-.38,13,13,0,0,1,.07-6,26.39,26.39,0,0,1-6.93-.34,1.71,1.71,0,0,1-1.2-.64,1.34,1.34,0,0,1,.23-1.65,2.64,2.64,0,0,1,1.19-.65,36.65,36.65,0,0,1,5.88-1.3,5.28,5.28,0,0,1,2.31,0c1.46.42,2.28,1.84,2.94,3.13a.49.49,0,0,1-.88.45c-.59-1.16-1.26-2.32-2.34-2.63a4.44,4.44,0,0,0-1.88,0,37.23,37.23,0,0,0-5.72,1.26,2,2,0,0,0-.79.4c-.12.13-.18.33-.12.42s.41.19.55.22a25.52,25.52,0,0,0,7.35.26.5.5,0,0,1,.43.17.51.51,0,0,1,.1.45,12.6,12.6,0,0,0-.23,6.24.49.49,0,0,1-.37.59Z" style="fill:#263238"></path><path d="M367.77,153.14a.9.9,0,0,1-.58-.21,1.08,1.08,0,0,1-.43-.82,1.6,1.6,0,0,1,.51-1.18,5.21,5.21,0,0,1,2.17-1.25,13.82,13.82,0,0,1,7.32-.53.49.49,0,0,1-.22,1,12.74,12.74,0,0,0-6.78.51,4.2,4.2,0,0,0-1.77,1,.69.69,0,0,0-.24.45.11.11,0,0,0,.05.09.48.48,0,0,1,.56.39.52.52,0,0,1-.41.58Z" style="fill:#263238"></path><path d="M380.54,164.79a.51.51,0,0,1-.31-.11.5.5,0,0,1-.07-.7,9.94,9.94,0,0,0,1.49-10.12l-.18-.39a5.75,5.75,0,0,1-.57-1.68,5.61,5.61,0,0,1,.05-1.48,4.36,4.36,0,0,0,0-1.49,4,4,0,0,0-1.82-1.94,12.71,12.71,0,0,0-5.59-2.51,1.27,1.27,0,0,0-.78.09.6.6,0,0,0-.07.42l2.3,1.36a3.18,3.18,0,0,1,1.49,1.46,3.22,3.22,0,0,1,.15,1.21,3.11,3.11,0,0,0,0,.61.5.5,0,0,1-.41.56.5.5,0,0,1-.57-.41,6.78,6.78,0,0,1,0-.78,2.48,2.48,0,0,0-.08-.84,2.42,2.42,0,0,0-1.08-1l-2.36-1.41a1,1,0,0,1-.43-.86,1.42,1.42,0,0,1,.53-1.18,2.15,2.15,0,0,1,1.41-.25,13.6,13.6,0,0,1,6.05,2.68,4.81,4.81,0,0,1,2.22,2.49,5.13,5.13,0,0,1,0,1.87,5.26,5.26,0,0,0-.05,1.24,5,5,0,0,0,.49,1.4l.18.41a11,11,0,0,1-1.63,11.15A.52.52,0,0,1,380.54,164.79Z" style="fill:#263238"></path><path d="M267.75,124l3.89-4.76,2.85,3.76A14.82,14.82,0,0,1,267.75,124Z" style="fill:#fff"></path><path d="M283.7,154.65l-3.15,8.06,12.32,6.19v-8.83l4.9,7.67a59.19,59.19,0,0,0,6-11.3l-3.67-4.21s-4.58,7.21-7.35,7S283.7,154.65,283.7,154.65Z" style="fill:#fff"></path><path d="M301.75,113.24l1.11,7.13s3.64.16,3.48,2.7-2.69,6.49-2.69,6.49,1.74,11.17-3.65,16.56l0,5.51s-3.47,6.93-7.1,8.44c0,0-6-2.15-8.87-4.84,0,0-4.22-14.88-5.65-19.63,0,0-2.66,1.63-4.37.09s-4.52-5.14-3.19-7.06,4.66-1.13,4.66-1.13l-3.81-8.23s6.5-8.4,15.06-8.08A75,75,0,0,1,301.75,113.24Z" style="fill:#fff"></path><path d="M282.05,113.48A17.48,17.48,0,0,1,284.47,124c-.18,2.06-.73,4.08-.85,6.14-.17,3.29.77,6.52,1.7,9.67.62,2.07,1.1,4.81,3,5.81.94.5,2,.13,3.17.92,0,.08.08.32.08.4,0,2.83.53,5.56.13,8.37a7.29,7.29,0,0,1-1.61,4.06l-6.4-4.72s-2.8-10.89-5.54-18.88c0,0-4.55,1.08-6.41-2.52s-1.73-5.1.12-5.56a12.1,12.1,0,0,1,4.52.11l-1.27-8.69,5.22-5.34Z" style="fill:#00AFEF"></path><path d="M282.05,113.48A17.48,17.48,0,0,1,284.47,124c-.18,2.06-.73,4.08-.85,6.14-.17,3.29.77,6.52,1.7,9.67.62,2.07,1.1,4.81,3,5.81.94.5,2,.13,3.17.92,0,.08.08.32.08.4,0,2.83.53,5.56.13,8.37a7.29,7.29,0,0,1-1.61,4.06l-6.4-4.72s-2.8-10.89-5.54-18.88c0,0-4.55,1.08-6.41-2.52s-1.73-5.1.12-5.56a12.1,12.1,0,0,1,4.52.11l-1.27-8.69,5.22-5.34Z" style="fill:#fff;opacity:0.5"></path><path d="M275.5,129.9l2.08-1.23s-1.81-3.58.34-5.27,4.15-3.84,2.61-8.76c0,0,3.07-1.53,8-.31s17.35,2.56,22.72-3.12,5.85-7.94,3.7-11.78-6.15,1.69-12.6-1.07-11.36-5.07-22.27,2-12.6,13.36-10.45,17.66S273.81,126.06,275.5,129.9Z" style="fill:#263238"></path><path d="M268.19,122.4l1.37-3.14a22.53,22.53,0,0,1-.52-12.72c2.19-8.49,11.62-12.73,17.3-13.51s10,1.93,14.29,4.08l7.88,1.6S284.4,101.6,268.19,122.4Z" style="fill:#fff"></path><path d="M296.1,147.65c-3.6,0-9.67-1.41-12.34-3.73l-.08-.09-5.75-8.23a.5.5,0,0,1,.13-.69.48.48,0,0,1,.68.12l5.71,8.18c3.19,2.71,11.15,4,13.35,3.27s4.89-2.58,5.54-11.08-1.55-19.85-1.57-20a.5.5,0,0,1,.39-.58.5.5,0,0,1,.58.39c0,.11,2.26,11.53,1.59,20.24-.7,9.09-3.7,11.16-6.24,12A7.19,7.19,0,0,1,296.1,147.65Z" style="fill:#263238"></path><path d="M275.75,136.62a4.43,4.43,0,0,1-2-.49,8.25,8.25,0,0,1-3.43-4.63,4.2,4.2,0,0,1,0-3.1c1.22-2.23,4.69-.7,4.84-.64a.49.49,0,1,1-.4.9s-2.8-1.19-3.57.21a3.14,3.14,0,0,0,.06,2.34,7.41,7.41,0,0,0,2.92,4,3.34,3.34,0,0,0,3.21-.06.5.5,0,0,1,.68.15.48.48,0,0,1-.14.68A4.24,4.24,0,0,1,275.75,136.62Z" style="fill:#263238"></path><path d="M295.83,132a.48.48,0,0,1-.48-.39.49.49,0,0,1,.39-.58,2.49,2.49,0,0,0,1.45-.91c.16-.2.31-.51.22-.71a1.3,1.3,0,0,0-.2-.26,10.94,10.94,0,0,1-1-1.21,3.41,3.41,0,0,1-.74-2.25,18.39,18.39,0,0,1,.18-3.32.5.5,0,0,1,.56-.42.5.5,0,0,1,.42.56,18.32,18.32,0,0,0-.18,3.14,3.49,3.49,0,0,0,.11.86,3,3,0,0,0,.46.87,9.93,9.93,0,0,0,.86,1.08,2,2,0,0,1,.4.54,1.7,1.7,0,0,1-.33,1.72,3.5,3.5,0,0,1-2.05,1.28Z" style="fill:#263238"></path><path d="M292.79,136.53a6.16,6.16,0,0,1-.92-.07l-.3,0a7.68,7.68,0,0,1-3.1-.92.5.5,0,0,1-.19-.68.49.49,0,0,1,.67-.19,6.52,6.52,0,0,0,2.69.81l.36,0a2.94,2.94,0,0,0,1.61-.09.51.51,0,0,1,.67.22.5.5,0,0,1-.22.66A2.76,2.76,0,0,1,292.79,136.53Z" style="fill:#263238"></path><path d="M285.73,120.79a.48.48,0,0,1-.26-.07.5.5,0,0,1-.16-.68,9.31,9.31,0,0,1,1.67-2.15,4.94,4.94,0,0,1,4.08-1.11.49.49,0,0,1-.19,1,3.94,3.94,0,0,0-3.24.89,8,8,0,0,0-1.48,1.92A.51.51,0,0,1,285.73,120.79Z" style="fill:#263238"></path><path d="M301.66,120.18a.49.49,0,0,1-.49-.41.85.85,0,0,0-.26-.48,2.09,2.09,0,0,0-.55-.32,4,4,0,0,0-3.44-.09.49.49,0,1,1-.5-.85,4.86,4.86,0,0,1,4.34,0,2.67,2.67,0,0,1,.83.52,1.83,1.83,0,0,1,.55,1,.49.49,0,0,1-.4.57Z" style="fill:#263238"></path><path d="M290.62,124.34c.07.74-.17,1.37-.54,1.4s-.73-.53-.8-1.27.17-1.37.54-1.41S290.55,123.6,290.62,124.34Z" style="fill:#263238"></path><path d="M299.78,123.82c.07.74-.17,1.37-.54,1.4s-.72-.54-.79-1.27.17-1.37.54-1.41S299.71,123.08,299.78,123.82Z" style="fill:#263238"></path><path d="M300.07,152.72a.49.49,0,0,1-.49-.44,34.32,34.32,0,0,1-.29-5.93.48.48,0,0,1,.52-.46.49.49,0,0,1,.46.53,36.6,36.6,0,0,0,.29,5.75.5.5,0,0,1-.44.55Z" style="fill:#263238"></path><path d="M283.62,155.1a.49.49,0,0,1-.49-.43c-.61-5.07-2.18-9.5-3.83-14.19-.56-1.6-1.15-3.25-1.7-4.95a.51.51,0,0,1,.32-.63.49.49,0,0,1,.62.32c.55,1.69,1.13,3.34,1.69,4.93,1.67,4.74,3.25,9.22,3.88,14.4a.5.5,0,0,1-.43.55Z" style="fill:#263238"></path><path d="M267.75,124.52a.37.37,0,0,1-.18,0,.48.48,0,0,1-.3-.57c3.17-13.62,11.09-22.09,24.22-25.89,7.92-2.3,18.09.09,18.52.2a.48.48,0,0,1,.37.51.49.49,0,0,1-.44.46,57.31,57.31,0,0,0-41.77,25.08A.48.48,0,0,1,267.75,124.52ZM299.37,98a27.81,27.81,0,0,0-7.61.94c-11.84,3.43-19.33,10.77-22.8,22.41a58.88,58.88,0,0,1,37.79-22.76A50.31,50.31,0,0,0,299.37,98Z" style="fill:#263238"></path><path d="M268.76,124.89a4,4,0,0,1-1.14-.13.49.49,0,0,1-.32-.62.49.49,0,0,1,.62-.32s1.8.5,5.35-1.06a.5.5,0,0,1,.39.91A12.37,12.37,0,0,1,268.76,124.89Z" style="fill:#263238"></path><path d="M269,118.85c-.05-.15-4.87-15.21,7-22.52,14.52-8.94,24.81.6,24.91.7l-.68.71c-.4-.37-9.86-9.09-23.72-.57-11.21,6.9-6.62,21.23-6.58,21.37Z" style="fill:#263238"></path><path d="M292.87,169.4a.48.48,0,0,1-.2,0c-.43-.18-10.62-4.49-12.66-6.87a.48.48,0,0,1-.08-.52l3.31-7.52a.5.5,0,0,1,.81-.14,21.45,21.45,0,0,0,8.94,5.28.49.49,0,0,1,.37.47v8.84a.51.51,0,0,1-.22.42A.53.53,0,0,1,292.87,169.4ZM281,162.06c2,1.91,9.14,5.11,11.4,6.09v-7.71a22.1,22.1,0,0,1-8.51-4.94Z" style="fill:#263238"></path><path d="M297.77,168.23h-.07a.52.52,0,0,1-.35-.23l-4.9-7.67a.53.53,0,0,1-.07-.37.5.5,0,0,1,.22-.31c.06,0,5.74-3.69,7.08-8.13a.5.5,0,0,1,.87-.15l3.59,4.78a.51.51,0,0,1,.08.4c-.07.32-1.82,7.69-6.12,11.55A.46.46,0,0,1,297.77,168.23Zm-4.23-8,4.32,6.76c3.38-3.38,5-9.22,5.34-10.42l-2.89-3.86C298.76,156.39,294.83,159.32,293.54,160.21Z" style="fill:#263238"></path><path d="M282.93,109.19a.5.5,0,0,1-.48-.37.49.49,0,0,1,.35-.6,35.18,35.18,0,0,1,11-1.11c1.08.07,2.18.18,3.24.29a29.19,29.19,0,0,0,7.23.18c3.18-.45,6.72-2.4,7.44-5.74a.5.5,0,0,1,.58-.38.49.49,0,0,1,.38.59c-.82,3.8-4.74,6-8.26,6.51a30.65,30.65,0,0,1-7.48-.17c-1.05-.11-2.13-.23-3.19-.29a34.1,34.1,0,0,0-10.68,1.07Z" style="fill:#fff"></path><path d="M290.05,105.46a.49.49,0,0,1-.23-.93c3-1.61,6.48-1.9,9.77-2.06h.27a18.94,18.94,0,0,0,4.33-.54,5.75,5.75,0,0,0,3.48-2.47.51.51,0,0,1,.68-.18.5.5,0,0,1,.18.68,6.77,6.77,0,0,1-4.07,2.92,20.19,20.19,0,0,1-4.55.58h-.27c-3.18.15-6.51.43-9.36,1.94A.46.46,0,0,1,290.05,105.46Z" style="fill:#fff"></path></g></g><g id="freepik--character-1--inject-2"><g id="freepik--character-1--inject-2"><path d="M117,302.33c-3.18,1.27,8.27,20,12.08,21s15.58-28.3,12.4-29.89-11.44,22.89-13,22.89S120.15,301.06,117,302.33Z" style="fill:#263238"></path><path d="M242.47,322.74l-1.93,13.16s.77,7.13-12.47,10.19c-5.69,1.32-14,.41-21.61-1.07a174.65,174.65,0,0,1-19.05-4.88l2.07-4.38,3.18-6.74-.11-.85-.28-2.15-4.2,1.4-32.86,10.86-3.38-7.35,27.65-17-.06-4.55-5.29-.22c0-2.55,1.72-6.88,1.72-6.88l3.06-.86s-2.81-30-1.78-34.58,10.6-10.32,10.6-10.32a16.29,16.29,0,0,0,8.41,9.17l2.46-6.12,2.36,4.88c6-2.65,11.08-12.41,11.08-12.41s13.73,3.6,23.67,18.88S242.47,322.74,242.47,322.74Z" style="fill:#00AFEF"></path><path d="M216.9,327.16c6.11,6.95-19.36,3.28-20.39,3.13a15.08,15.08,0,0,1,10,13.93,92.77,92.77,0,0,1-19.12-4.08l2.07-4.38,3.07-7.59-.28-2.15-2.54-14.09s18.72,2.28,34.82,4.74l-26.37,1.42S210.66,320.08,216.9,327.16Z" style="opacity:0.2"></path><path d="M186.91,299.21l23.31-4.07c-.72-7.46,0-15.1,3.39-21.8a18.16,18.16,0,0,1,3.19-4.41c.57-.6,2.77-.24,2.39,2.74-.77,6.13-1,5.27-1.91,11.33l-1.95,12.26s12.82-3.23,14.56,7.51a.79.79,0,0,1-1.11.83c-3-1.39-10.43-4.65-13.19-4,0,0-11-.14-14.69.71s-13.56,1-13.56,1Z" style="opacity:0.2"></path><polygon points="151.82 330.93 155.21 338.28 192.28 326.02 189.79 311.96 179.47 310.58 179.41 313.99 151.82 330.93" style="opacity:0.2"></polygon><path d="M153,333.37l-1.78-1.78s-5.75-.87-8.74.39-12.26,4.79-11.25,5.32,6.34.6,6.34.6-11.57,7.06-11.44,8,11.08,0,12.86-.38,15.55-8.18,15.55-8.18Z" style="fill:#fff"></path><path d="M174.17,308l1.54-4.95s-5.15-5.81-7.89-6.21a14.55,14.55,0,0,0-6.22,1s-4.88-2.74-5.61-1.4.12,4.18.12,4.18-2.19,3.64-.72,5a4.76,4.76,0,0,1,1.53,3.08S167.62,311.17,174.17,308Z" style="fill:#fff"></path><path d="M155.89,297c1.28-1.43,2.27,3.72,3.28,5.35a8.71,8.71,0,0,0,1.8,2.32c1.39,1.12,3.3,1.28,5.08,1.3a46.65,46.65,0,0,0,8.17-.65l.62,2s-6.19,3.28-17.92,1.41a8.44,8.44,0,0,0-1.53-3.23c-1.08-1.24.52-4.23.52-4.23S154.74,298.25,155.89,297Z" style="fill:#00AFEF"></path><path d="M155.89,297c1.28-1.43,2.27,3.72,3.28,5.35a8.71,8.71,0,0,0,1.8,2.32c1.39,1.12,3.3,1.28,5.08,1.3a46.65,46.65,0,0,0,8.17-.65l.62,2s-6.19,3.28-17.92,1.41a8.44,8.44,0,0,0-1.53-3.23c-1.08-1.24.52-4.23.52-4.23S154.74,298.25,155.89,297Z" style="fill:#fff;opacity:0.5"></path><path d="M152.16,285c-3,4.23-9.71,4.62-15,.87s-6.81-10.21-3.84-14.44,9.3-4.63,14.63-.88S155.14,280.73,152.16,285Z" style="fill:#fff"></path><path d="M135.67,270.27s-.3,10.22,15.94,13.23c0,0,.6,4.21-5.11,3.51s-11.43-5.91-12.64-8.92S132.26,271.27,135.67,270.27Z" style="fill:#00AFEF"></path><path d="M135.67,270.27s-.3,10.22,15.94,13.23c0,0,.6,4.21-5.11,3.51s-11.43-5.91-12.64-8.92S132.26,271.27,135.67,270.27Z" style="fill:#fff;opacity:0.4"></path><path d="M146.58,287.48l-.66,0A15.29,15.29,0,0,1,133,277a7.1,7.1,0,0,1,7.72-9.55,15.28,15.28,0,0,1,13,10.48,7.58,7.58,0,0,1-1.12,7A7.37,7.37,0,0,1,146.58,287.48Zm-6.53-19.07a6.44,6.44,0,0,0-5.19,2.2h0a6.66,6.66,0,0,0-.93,6.11,14.33,14.33,0,0,0,12,9.76,6.13,6.13,0,0,0,6.72-8.3,14.3,14.3,0,0,0-12.06-9.75Z" style="fill:#263238"></path><path d="M145.08,289.15c-.21,0-.43,0-.66,0a15.29,15.29,0,0,1-12.94-10.47,7.63,7.63,0,0,1,1.11-7h0c3-3.69,9.55-3.34,14.64.77S154,282.9,151,286.59A7.43,7.43,0,0,1,145.08,289.15Zm-11.72-16.87a6.66,6.66,0,0,0-.93,6.11,14.29,14.29,0,0,0,12,9.76,6.67,6.67,0,0,0,5.79-2.18c2.64-3.27,1-9-3.66-12.77S136,269,133.36,272.28Z" style="fill:#263238"></path><path d="M164.16,299.15,156.65,297l-8-9a1.3,1.3,0,0,1,.08-.17,3.52,3.52,0,0,1,1-1.45,2.59,2.59,0,0,1,.77-.4,1.23,1.23,0,0,1,.36-.07H151Z" style="fill:#263238"></path><path d="M155.21,338.77a.49.49,0,0,1-.44-.29l-3.4-7.35a.49.49,0,0,1,.19-.62l27.35-16.79-.07-3.05a.49.49,0,0,1,.49-.5.48.48,0,0,1,.5.48l.08,3.33a.51.51,0,0,1-.24.43l-27.22,16.71,3,6.55,36.64-12.12a.49.49,0,0,1,.62.32.48.48,0,0,1-.31.62l-37.06,12.25A.41.41,0,0,1,155.21,338.77Z" style="fill:#263238"></path><path d="M178.78,302a.5.5,0,0,1-.5-.46l-1.94-33.76a.42.42,0,0,1,0-.22,26,26,0,0,1,11-12.11.5.5,0,0,1,.68.18.49.49,0,0,1-.17.67,24.92,24.92,0,0,0-10.53,11.54l1.94,33.64a.49.49,0,0,1-.47.52Z" style="fill:#263238"></path><path d="M239.37,343.32h-.08a.49.49,0,0,1-.41-.56L242,322.66c0-.27,1-32.82-3.83-45.53-5.31-13.91-19.94-21.72-26-24.44a.49.49,0,0,1,.4-.9c6.16,2.77,21.06,10.73,26.5,25,4.92,12.9,3.93,44.63,3.89,46l-3.12,20.15A.49.49,0,0,1,239.37,343.32Z" style="fill:#263238"></path><path d="M187.34,301.89a.49.49,0,0,1-.49-.4l-4-21.56a.49.49,0,0,1,1-.18l4,21.56a.49.49,0,0,1-.39.57Z" style="fill:#263238"></path><path d="M202.74,336.78a.54.54,0,0,1-.36-.14,14,14,0,0,0-7.6-4,.51.51,0,0,1-.4-.58.5.5,0,0,1,.57-.4,15,15,0,0,1,8.14,4.31.48.48,0,0,1,0,.69A.45.45,0,0,1,202.74,336.78Z" style="fill:#263238"></path><path d="M215.59,300.14a.49.49,0,0,1-.49-.49c0-.08,0-7.27,2.62-19.91a35.36,35.36,0,0,1,2.33-7.52.49.49,0,0,1,.66-.24.5.5,0,0,1,.24.66,34,34,0,0,0-2.26,7.3c-2.61,12.52-2.6,19.63-2.6,19.7a.51.51,0,0,1-.49.5Z" style="fill:#263238"></path><path d="M228.52,317.1c-9.09,0-46.36-6-54.46-7.36a.49.49,0,0,1-.41-.48c0-5.22,2.18-7.17,2.28-7.25a.42.42,0,0,1,.26-.12c4.38-.51,8.29-.74,12.08-1s7.67-.44,12-.95c8.19-1,18.39-2.15,26.88,2a.49.49,0,1,1-.43.88c-8.23-4-18.27-2.86-26.34-1.92-4.37.52-8.28.74-12.06,1s-7.57.43-11.85.93c-.38.41-1.74,2.17-1.84,6,21.28,3.48,53.23,8.22,55.24,7.2,1.6-1.07,5.76-19.58,8-31a.49.49,0,0,1,1,.19c-1,5-6,30-8.43,31.62A4.31,4.31,0,0,1,228.52,317.1Z" style="fill:#263238"></path><path d="M175.52,303.28a.5.5,0,0,1-.34-.13c-2.38-2.25-6.14-5.48-7.06-5.62a36.76,36.76,0,0,0-6.22.52.48.48,0,0,1-.56-.41.5.5,0,0,1,.42-.56,39,39,0,0,1,6.5-.52c1.56.22,6.6,4.93,7.6,5.87a.5.5,0,0,1,0,.7A.51.51,0,0,1,175.52,303.28Z" style="fill:#263238"></path><path d="M164,310c-3.68,0-6.85-.3-7.1-.33a.51.51,0,0,1-.45-.49,3.46,3.46,0,0,0-1.27-2.57c-1.59-1.13-.19-4.65.35-5.85a4.32,4.32,0,0,1-.11-3.83,1.39,1.39,0,0,1,.85-.86c1.58-.58,4.86,1.13,7.85,2.88l.63.36a.45.45,0,0,1,.32.19.53.53,0,0,1,0,.64c-.29.32-.46.22-1.42-.34-1.4-.82-5.66-3.3-7-2.8a.42.42,0,0,0-.26.26c-.75,2.16.07,3.06.1,3.09a.51.51,0,0,1,.09.56c-.78,1.65-1.57,4.34-.79,4.9a4.24,4.24,0,0,1,1.65,2.92c2.16.18,12.3.92,16.31-1.09a.5.5,0,0,1,.67.22.49.49,0,0,1-.22.66C171.81,309.65,167.66,310,164,310Z" style="fill:#263238"></path><path d="M216.4,278.12a.5.5,0,0,1-.49-.44,33.73,33.73,0,0,1,0-7,.49.49,0,1,1,1,.1,33.2,33.2,0,0,0,0,6.76.49.49,0,0,1-.44.54Z" style="fill:#263238"></path><path d="M187,318.18a.39.39,0,0,1-.18,0L179,315a.49.49,0,0,1-.28-.64.5.5,0,0,1,.64-.28l7.86,3.17a.49.49,0,0,1,.28.64A.5.5,0,0,1,187,318.18Z" style="fill:#263238"></path><path d="M219.48,298.59a.5.5,0,0,1,0-1,22,22,0,0,0,5.91-1.05.49.49,0,1,1,.3.94,22.8,22.8,0,0,1-6.18,1.1Z" style="fill:#263238"></path><path d="M187.82,340.33l-.18,0a.5.5,0,0,1-.27-.65l4.78-11.81-2.91-16a.48.48,0,0,1,.39-.57.49.49,0,0,1,.58.39l2.93,16.12a.54.54,0,0,1,0,.28l-.11.26L188.28,340A.48.48,0,0,1,187.82,340.33Z" style="fill:#263238"></path><path d="M207,329.5h-.1a47.42,47.42,0,0,0-9.58-1.07,29.46,29.46,0,0,0-4.62.28.49.49,0,0,1-.56-.41.5.5,0,0,1,.42-.56,30,30,0,0,1,4.77-.29,48,48,0,0,1,9.78,1.08.5.5,0,0,1-.11,1Z" style="fill:#263238"></path><path d="M129.12,347.16a11.77,11.77,0,0,1-2.9-.24.85.85,0,0,1-.57-.46c-.15-.4-.38-1.06,10-7.91-1.89.11-4.17.08-4.76-.61a.83.83,0,0,1-.17-.77c.25-.9,2.1-1.69,6.24-3.29a31.3,31.3,0,0,0,5.2-2.3c3.15-2.26,10.14.19,10.44.3a.49.49,0,1,1-.33.92c-.07,0-6.8-2.38-9.53-.42a30.11,30.11,0,0,1-5.43,2.42c-2,.79-5.06,2-5.58,2.56.59.31,3.12.34,5.76.05a.51.51,0,0,1,.52.33.49.49,0,0,1-.2.58,125.61,125.61,0,0,0-11,7.74c2.14.37,10.72-.06,13.18-1.77,4.27-3,13.91-7.18,14.32-7.36a.49.49,0,0,1,.4.9c-.1.05-10,4.37-14.15,7.27C138.55,346.53,132.79,347.16,129.12,347.16Z" style="fill:#263238"></path><path d="M131.84,347.06a.47.47,0,0,1-.42-.24.49.49,0,0,1,.16-.67l7.66-4.71a.49.49,0,0,1,.68.17.49.49,0,0,1-.16.67L132.1,347A.48.48,0,0,1,131.84,347.06Z" style="fill:#263238"></path><path d="M176.83,267.79s5.22,6.38,6.69,13.73,3.82,19.88,3.82,19.88l-8.15.6Z" style="opacity:0.2"></path><path d="M214.76,413.08s-13.58,13.76-15.28,16.47-3.63,4.35-.41,5.87,12.94.49,15.36-.44c3.14-1.19,12.39-13.24,12.39-13.24l-1.19-10.19Z" style="fill:#fff"></path><path d="M204.56,437.08c-4.69,0-7.4-1.24-7.94-3.69-.77-3.45,14.84-17.4,16.63-19l.2-.18.26.07,1.19.35a27.6,27.6,0,0,0,11.66,1.19l.49,0,0,.49c.16,2.35.45,3.95.45,4l0,.16-.07.14c-.28.58-6.85,14.26-15.48,15.76A44.34,44.34,0,0,1,204.56,437.08Zm9.14-21.75c-7,6.25-16.57,15.81-16.12,17.85.64,2.85,5.83,3.65,14.26,2.18,7.69-1.34,14-13.63,14.69-15.08-.07-.43-.26-1.68-.4-3.42a28.38,28.38,0,0,1-11.52-1.26Z" style="fill:#263238"></path><path d="M207.89,434.39a25.23,25.23,0,0,1-10.13-2.45l-.17-.08.32-.93.26.11c3,1.38,8.81,3.43,14.12,1.69,4.91-1.6,13.62-15.86,13.71-16l.84.52c-.36.6-9,14.71-14.25,16.43A15,15,0,0,1,207.89,434.39Z" style="fill:#263238"></path><path d="M209.82,394s-34.55,28-48.76,28c0,0-7.73-2.76-10.57-13.78s7.82-27,7.82-27l28.56-38.1,1.87-2.56s29.42,10.7,48.87-4c0,0,2,24-2.92,34S209.82,394,209.82,394Z" style="fill:#263238"></path><path d="M161.73,421.13a3.6,3.6,0,0,1-.92-.1c-5.66-1.49-10.25-10.13-11.06-15.67s5.5-22.11,13-31.63c7.66-9.7,24.54-31.4,24.71-31.62l.78.61c-.17.22-17.05,21.92-24.71,31.62-7.92,10-13.5,26.1-12.81,30.88.75,5.14,5.14,13.49,10.33,14.85a2.75,2.75,0,0,0,.74.08c6.67,0,33.59-14.62,43.78-25l.7.69C196.46,405.84,169.26,421.13,161.73,421.13Z" style="fill:#263238"></path><path d="M175.93,395.31a.48.48,0,0,1-.37-.17.49.49,0,0,1,0-.69l34.06-30a42,42,0,0,0-6.27-12.07.49.49,0,0,1,.8-.58,42.85,42.85,0,0,1,6.51,12.66.51.51,0,0,1-.15.52l-34.3,30.24A.49.49,0,0,1,175.93,395.31Z" style="fill:#fff"></path><path d="M228.09,406.09c1.85-7,14.26-46.44,14.39-53.48.13-7.62-5.54-24.71-12.54-29.5s-16.2,1.12-18.08,5.53c-3.37,7.93.74,86.67.74,86.67l-.73.64a45.84,45.84,0,0,0,15.4,1.23A35.87,35.87,0,0,1,228.09,406.09Z" style="fill:#263238"></path><path d="M211.84,383.15a.49.49,0,0,1-.49-.44c-.18-1.91-4.25-46.66,0-55.54a.5.5,0,0,1,.66-.23.49.49,0,0,1,.23.66c-4.13,8.64,0,54.55.09,55a.48.48,0,0,1-.44.54Z" style="fill:#fff"></path><path d="M242.83,354.54h0a.51.51,0,0,1-.47-.52,38.1,38.1,0,0,0-1.38-9.37l-.12-.49a.5.5,0,0,1,.37-.6.48.48,0,0,1,.59.37l.12.49a39.19,39.19,0,0,1,1.41,9.64A.5.5,0,0,1,242.83,354.54Z" style="fill:#fff"></path><path d="M240.26,340.79a.49.49,0,0,1-.47-.34,64.77,64.77,0,0,0-6-13.35.5.5,0,0,1,.16-.68.49.49,0,0,1,.68.15,66.9,66.9,0,0,1,6.11,13.58.5.5,0,0,1-.32.62A.39.39,0,0,1,240.26,340.79Z" style="fill:#fff"></path><path d="M207.61,249.26l4.43,2.81s-5.34,9-11.08,12.41l-2.33-4.43-2.49,5.67-5.56-4.78-2.91-4.89.74-3.41s-4.9-4.74-8.16-14.53-3.54-15.22-3.54-15.22,15.11-8.49,18.52-6.27,8.15,8,8.15,8l5.33-.89s3.41,9.9-1.33,11.83Z" style="fill:#fff"></path><path d="M195.23,220.21c-2.64-.76-5.45.66-7.48,2.51s-3.62,4.18-5.8,5.86a138,138,0,0,0,6.89,17.79,10.63,10.63,0,0,0,2.86,4.15c2.24,1.69,5.49,1.41,8,.06a19.61,19.61,0,0,0,6.11-5s-4.16,14.21-7.16,14L193,255.42a49.31,49.31,0,0,1-6.07-4.21c-2.11-1.87-6.43-13-7.59-15.88l-3.16-12,16.23-6.65Z" style="fill:#00AFEF"></path><path d="M195.23,220.21c-2.64-.76-5.45.66-7.48,2.51s-3.62,4.18-5.8,5.86a138,138,0,0,0,6.89,17.79,10.63,10.63,0,0,0,2.86,4.15c2.24,1.69,5.49,1.41,8,.06a19.61,19.61,0,0,0,6.11-5s-4.16,14.21-7.16,14L193,255.42a49.31,49.31,0,0,1-6.07-4.21c-2.11-1.87-6.43-13-7.59-15.88l-3.16-12,16.23-6.65Z" style="fill:#fff;opacity:0.5"></path><path d="M205.77,236.3a5.35,5.35,0,0,1-1.58-.25.48.48,0,0,1-.32-.61.49.49,0,0,1,.61-.33,3.48,3.48,0,0,0,2.75-.15,4.93,4.93,0,0,0,2.11-3.1c.63-2.19.3-5.24-.71-6.54a1.36,1.36,0,0,0-1.12-.61c-1.62.07-2.85,3.76-3.15,5a.48.48,0,0,1-.59.37.49.49,0,0,1-.37-.59c.14-.58,1.41-5.7,4.07-5.8a2.28,2.28,0,0,1,1.93,1c1.23,1.56,1.62,4.89.89,7.41a5.82,5.82,0,0,1-2.59,3.69A4,4,0,0,1,205.77,236.3Z" style="fill:#263238"></path><path d="M191.91,245.66h-.43a.5.5,0,0,1,0-1c3.79.16,4.93-2.13,4.94-2.15a.49.49,0,0,1,.89.43C197.3,243.06,196,245.66,191.91,245.66Z" style="fill:#263238"></path><path d="M190,242a5.08,5.08,0,0,1-2.73-.79,2.05,2.05,0,0,1-.79-.79,2.43,2.43,0,0,1,0-1.7,12.69,12.69,0,0,0,.47-4.21,5.13,5.13,0,0,0-1.7-3.54.49.49,0,0,1-.08-.69.51.51,0,0,1,.7-.08,6.1,6.1,0,0,1,2.06,4.21,13.93,13.93,0,0,1-.49,4.54,1.75,1.75,0,0,0-.05,1,1.26,1.26,0,0,0,.43.4,4.17,4.17,0,0,0,3,.56.48.48,0,0,1,.58.38.49.49,0,0,1-.38.58A4.75,4.75,0,0,1,190,242Z" style="fill:#263238"></path><path d="M195.88,228.41a.51.51,0,0,1-.28-.09,7.6,7.6,0,0,0-6.1-1,.48.48,0,0,1-.6-.35.49.49,0,0,1,.35-.6,8.57,8.57,0,0,1,6.91,1.17.5.5,0,0,1-.28.91Z" style="fill:#263238"></path><path d="M178.45,231.75a.47.47,0,0,1-.25-.07A.49.49,0,0,1,178,231a4.2,4.2,0,0,1,2.65-1.95,4.15,4.15,0,0,1,3.25.57.49.49,0,1,1-.54.82,3.21,3.21,0,0,0-4.51,1.06A.49.49,0,0,1,178.45,231.75Z" style="fill:#263238"></path><path d="M191.78,232.81c.26.73.81,1.21,1.22,1.06s.55-.86.29-1.59-.8-1.21-1.21-1.07S191.53,232.07,191.78,232.81Z" style="fill:#263238"></path><path d="M183.12,235.24c.26.75.81,1.23,1.23,1.09s.56-.88.3-1.62-.81-1.23-1.24-1.09S182.86,234.5,183.12,235.24Z" style="fill:#263238"></path><path d="M193.16,255c-2.66,0-6.08-1.4-10.06-9-4.28-8.14-7-21.32-7-21.46a.5.5,0,0,1,.39-.58.49.49,0,0,1,.58.39c0,.13,2.7,13.18,6.91,21.19s7.54,8.67,10,8.41,9.6-4.78,11.55-8.74l1.62-9.51a.49.49,0,0,1,.57-.4.48.48,0,0,1,.4.57l-1.63,9.58a.33.33,0,0,1,0,.13c-2,4.11-9.47,9-12.37,9.35A8.76,8.76,0,0,1,193.16,255Z" style="fill:#263238"></path><path d="M207.34,249.85a.49.49,0,0,1-.49-.45,58.57,58.57,0,0,1,.4-13.89.5.5,0,0,1,1,.16,57,57,0,0,0-.4,13.64.49.49,0,0,1-.44.54Z" style="fill:#263238"></path><path d="M200.74,265.16,198,259.45l.34-.25c3.73-2.72,8.84-10.14,8.89-10.22l.27-.39,5.18,3.28-.15.38c-3.13,8.2-11,12.48-11.31,12.66Zm-1.52-5.41,1.95,4c1.67-1,7.6-5,10.26-11.51l-3.69-2.34C206.65,251.48,202.57,257.14,199.22,259.75Z" style="fill:#263238"></path><path d="M196.39,266.44l-.5-.29c-.26-.15-6.44-3.82-8.62-9.42l0-.11.31-4.54,1,.07-.3,4.32c1.74,4.35,6.19,7.55,7.67,8.52l2-5.1c-1-.42-3.33-1.71-6.06-5.26l.79-.61c3.34,4.36,6,5.1,6,5.1l.54.15Z" style="fill:#263238"></path><path d="M204.11,229.18c-.27.89-1.7.77-2.55,1.15,0-2.12,0-4.1-1.42-5.83-.83-1-3.29-.4-4.44-1.23s-.69-2.14-1.37-2.79c-1-.92-4.75-.41-5.87,0a19.17,19.17,0,0,0-4.07,2.38c-3.15,2-8.21,3.55-11.83,2-4.46-1.94-4.25-9.18.52-10.54,2.93-.84,6.52-.33,9.22-1.89,3.32-1.92,16.4-12.53,24.19-3.46a19,19,0,0,1,3.55,19S207.43,218.6,204.11,229.18Z" style="fill:#263238"></path><path d="M172.12,224.44a.5.5,0,0,1,0-1c3.53-.22,6.59-2.4,9.55-4.51,1-.71,2-1.45,3.08-2.11a29.25,29.25,0,0,1,6-2.89,15.6,15.6,0,0,1,5.21-1h0a11.21,11.21,0,0,1,10.09,6.75.49.49,0,0,1-.26.65.51.51,0,0,1-.65-.27A10.21,10.21,0,0,0,196,213.9a13.94,13.94,0,0,0-4.91,1,28.53,28.53,0,0,0-5.81,2.8c-1,.64-2,1.37-3,2.07-3.08,2.19-6.25,4.46-10.07,4.7Z" style="fill:#fff"></path><path d="M177.13,217.75a6.6,6.6,0,0,1-1.7-.21.5.5,0,0,1-.35-.61.49.49,0,0,1,.6-.35c2.74.73,5.64-.85,8.2-2.25,3.47-1.89,7.52-3.81,11.81-4,4.71-.21,9,1.9,10.93,5.35a.51.51,0,0,1-.19.68.5.5,0,0,1-.67-.19c-1.75-3.14-5.68-5-10-4.85-4.09.18-8,2-11.3,3.84C182.14,216.4,179.66,217.75,177.13,217.75Z" style="fill:#fff"></path></g></g></svg>