<svg width="12" height="14" viewBox="0 0 12 14" fill="none" xmlns="http://www.w3.org/2000/svg">
<path d="M3.42857 0.142822C3.90268 0.142822 4.28571 0.525858 4.28571 0.999965V1.85711H7.71429V0.999965C7.71429 0.525858 8.09732 0.142822 8.57143 0.142822C9.04554 0.142822 9.42857 0.525858 9.42857 0.999965V1.85711H10.7143C11.4241 1.85711 12 2.433 12 3.14282V4.42854H0V3.14282C0 2.433 0.575893 1.85711 1.28571 1.85711H2.57143V0.999965C2.57143 0.525858 2.95446 0.142822 3.42857 0.142822ZM0 5.28568H12V12.5714C12 13.2812 11.4241 13.8571 10.7143 13.8571H1.28571C0.575893 13.8571 0 13.2812 0 12.5714V5.28568ZM1.71429 7.42854V8.28568C1.71429 8.52139 1.90714 8.71425 2.14286 8.71425H3C3.23571 8.71425 3.42857 8.52139 3.42857 8.28568V7.42854C3.42857 7.19282 3.23571 6.99997 3 6.99997H2.14286C1.90714 6.99997 1.71429 7.19282 1.71429 7.42854ZM5.14286 7.42854V8.28568C5.14286 8.52139 5.33571 8.71425 5.57143 8.71425H6.42857C6.66429 8.71425 6.85714 8.52139 6.85714 8.28568V7.42854C6.85714 7.19282 6.66429 6.99997 6.42857 6.99997H5.57143C5.33571 6.99997 5.14286 7.19282 5.14286 7.42854ZM9 6.99997C8.76429 6.99997 8.57143 7.19282 8.57143 7.42854V8.28568C8.57143 8.52139 8.76429 8.71425 9 8.71425H9.85714C10.0929 8.71425 10.2857 8.52139 10.2857 8.28568V7.42854C10.2857 7.19282 10.0929 6.99997 9.85714 6.99997H9ZM1.71429 10.8571V11.7143C1.71429 11.95 1.90714 12.1428 2.14286 12.1428H3C3.23571 12.1428 3.42857 11.95 3.42857 11.7143V10.8571C3.42857 10.6214 3.23571 10.4285 3 10.4285H2.14286C1.90714 10.4285 1.71429 10.6214 1.71429 10.8571ZM5.57143 10.4285C5.33571 10.4285 5.14286 10.6214 5.14286 10.8571V11.7143C5.14286 11.95 5.33571 12.1428 5.57143 12.1428H6.42857C6.66429 12.1428 6.85714 11.95 6.85714 11.7143V10.8571C6.85714 10.6214 6.66429 10.4285 6.42857 10.4285H5.57143ZM8.57143 10.8571V11.7143C8.57143 11.95 8.76429 12.1428 9 12.1428H9.85714C10.0929 12.1428 10.2857 11.95 10.2857 11.7143V10.8571C10.2857 10.6214 10.0929 10.4285 9.85714 10.4285H9C8.76429 10.4285 8.57143 10.6214 8.57143 10.8571Z" fill="#ADADAD"/>
</svg>
