<svg width="24" height="18" viewBox="0 0 24 18" fill="none" xmlns="http://www.w3.org/2000/svg">
<path d="M1.2 0.899902C0.53625 0.899902 0 1.43615 0 2.0999C0 2.76365 0.53625 3.2999 1.2 3.2999V15.2999C0.53625 15.2999 0 15.8362 0 16.4999C0 17.1637 0.53625 17.6999 1.2 17.6999H22.8C23.4638 17.6999 24 17.1637 24 16.4999C24 15.8362 23.4638 15.2999 22.8 15.2999V3.2999C23.4638 3.2999 24 2.76365 24 2.0999C24 1.43615 23.4638 0.899902 22.8 0.899902H1.2ZM6.6 5.3999V13.1999C6.6 13.6987 6.19875 14.0999 5.7 14.0999C5.20125 14.0999 4.8 13.6987 4.8 13.1999V5.3999C4.8 4.90115 5.20125 4.4999 5.7 4.4999C6.19875 4.4999 6.6 4.90115 6.6 5.3999ZM10.8 5.3999V13.1999C10.8 13.6987 10.3988 14.0999 9.9 14.0999C9.40125 14.0999 9 13.6987 9 13.1999V5.3999C9 4.90115 9.40125 4.4999 9.9 4.4999C10.3988 4.4999 10.8 4.90115 10.8 5.3999ZM15 5.3999V13.1999C15 13.6987 14.5988 14.0999 14.1 14.0999C13.6013 14.0999 13.2 13.6987 13.2 13.1999V5.3999C13.2 4.90115 13.6013 4.4999 14.1 4.4999C14.5988 4.4999 15 4.90115 15 5.3999ZM19.2 5.3999V13.1999C19.2 13.6987 18.7987 14.0999 18.3 14.0999C17.8013 14.0999 17.4 13.6987 17.4 13.1999V5.3999C17.4 4.90115 17.8013 4.4999 18.3 4.4999C18.7987 4.4999 19.2 4.90115 19.2 5.3999Z" fill="white"/>
</svg>
