<svg width="16" height="15" viewBox="0 0 16 15" fill="none" xmlns="http://www.w3.org/2000/svg">
<g clip-path="url(#clip0_1159_123)">
<path d="M1.75 0.5C0.784766 0.5 0 1.28477 0 2.25V12.75C0 13.7152 0.784766 14.5 1.75 14.5H8.75C9.71523 14.5 10.5 13.7152 10.5 12.75V12.2223C10.4262 12.2523 10.3523 12.277 10.2758 12.2961L8.63242 12.7063C8.55039 12.7254 8.46836 12.7391 8.38633 12.7445C8.36172 12.7473 8.33711 12.75 8.3125 12.75H6.5625C6.3957 12.75 6.24531 12.657 6.17148 12.5094L5.93086 12.0254C5.88437 11.9324 5.79141 11.875 5.69023 11.875C5.58906 11.875 5.49336 11.9324 5.44961 12.0254L5.20898 12.5094C5.12969 12.6707 4.95742 12.7664 4.77969 12.75C4.60195 12.7336 4.44883 12.6105 4.39961 12.441L3.9375 10.918L3.66953 11.8148C3.50273 12.3699 2.99141 12.75 2.41172 12.75H2.1875C1.94687 12.75 1.75 12.5531 1.75 12.3125C1.75 12.0719 1.94687 11.875 2.1875 11.875H2.41172C2.60586 11.875 2.77539 11.7492 2.83008 11.5633L3.2375 10.2098C3.33047 9.90078 3.61484 9.6875 3.9375 9.6875C4.26016 9.6875 4.54453 9.90078 4.6375 10.2098L4.95469 11.2652C5.15703 11.0957 5.41406 11 5.6875 11C6.12227 11 6.51875 11.2461 6.71289 11.6344L6.8332 11.875H7.07656C6.9918 11.6344 6.97539 11.3719 7.03828 11.1148L7.44844 9.47148C7.525 9.1625 7.68359 8.88359 7.90781 8.65938L10.5 6.06719V4.875H7C6.51602 4.875 6.125 4.48398 6.125 4V0.5H1.75ZM7 0.5V4H10.5L7 0.5ZM15.0336 4.31992C14.607 3.89336 13.9152 3.89336 13.4859 4.31992L12.682 5.12383L14.6234 7.06523L15.4273 6.26133C15.8539 5.83477 15.8539 5.14297 15.4273 4.71367L15.0336 4.31992ZM8.52852 9.27734C8.41641 9.38945 8.33711 9.52891 8.29883 9.68477L7.88867 11.3281C7.85039 11.4785 7.89414 11.6344 8.00352 11.7438C8.11289 11.8531 8.26875 11.8969 8.41914 11.8586L10.0625 11.4484C10.2156 11.4102 10.3578 11.3309 10.4699 11.2188L14.0027 7.6832L12.0613 5.7418L8.52852 9.27734Z" fill="#ADADAD"/>
</g>
<defs>
<clipPath id="clip0_1159_123">
<rect width="15.75" height="14" fill="white" transform="translate(0 0.5)"/>
</clipPath>
</defs>
</svg>
