<svg width="45" height="45" viewBox="0 0 45 45" fill="none" xmlns="http://www.w3.org/2000/svg">
<path d="M22.5 45C28.4674 45 34.1903 42.6295 38.4099 38.4099C42.6295 34.1903 45 28.4674 45 22.5C45 16.5326 42.6295 10.8097 38.4099 6.5901C34.1903 2.37053 28.4674 0 22.5 0C16.5326 0 10.8097 2.37053 6.5901 6.5901C2.37053 10.8097 0 16.5326 0 22.5C0 28.4674 2.37053 34.1903 6.5901 38.4099C10.8097 42.6295 16.5326 45 22.5 45ZM20.3906 30.2344V24.6094H14.7656C13.5967 24.6094 12.6562 23.6689 12.6562 22.5C12.6562 21.3311 13.5967 20.3906 14.7656 20.3906H20.3906V14.7656C20.3906 13.5967 21.3311 12.6562 22.5 12.6562C23.6689 12.6562 24.6094 13.5967 24.6094 14.7656V20.3906H30.2344C31.4033 20.3906 32.3438 21.3311 32.3438 22.5C32.3438 23.6689 31.4033 24.6094 30.2344 24.6094H24.6094V30.2344C24.6094 31.4033 23.6689 32.3438 22.5 32.3438C21.3311 32.3438 20.3906 31.4033 20.3906 30.2344Z" fill="url(#paint0_linear_1233_26)"/>
<defs>
<linearGradient id="paint0_linear_1233_26" x1="22.5" y1="0" x2="22.5" y2="45" gradientUnits="userSpaceOnUse">
<stop stop-color="#00AFEF"/>
<stop offset="1" stop-color="#020127" stop-opacity="0.813013"/>
</linearGradient>
</defs>
</svg>
